<?xml version="1.0" encoding="UTF-8"?>
<svg width="64px" height="64px" viewBox="0 0 64 64" version="1.1" xmlns="http://www.w3.org/2000/svg" xmlns:xlink="http://www.w3.org/1999/xlink">
    <!-- Generator: Sketch 64 (93537) - https://sketch.com -->
    <title>matt-edgar-icon-64</title>
    <desc>Created with Sketch.</desc>
    <g id="matt-edgar-icon-64" stroke="none" stroke-width="1" fill="none" fill-rule="evenodd">
        <g id="matt-edgar-icon-64px" transform="translate(-96.000000, -67.000000)">
            <path d="M0,0 C64.9998375,0 130.000162,0 195,0 C195,64.9998375 195,130.000162 195,195 C130.000162,195 64.9998375,195 0,195 C0,130.000162 0,64.9998375 0,0 Z" id="Path" fill="#FDFDFD"></path>
            <path d="M93.1617494,24 C94.8463373,24.454099 96.2265402,25.424396 97.3013842,26.9108911 C104.327075,37.8374059 111.713644,48.5106733 119.460606,58.9306931 C122.090978,57.6819208 124.526058,56.1454554 126.765844,54.3217822 C131.974965,48.9705941 137.33214,43.7956604 142.837367,38.7970297 C153.698307,28.9446337 164.737496,28.7828851 175.954445,38.3118812 C184.568781,47.0654158 190.250795,57.4150891 193,69.3613861 C192.373698,73.7364554 191.399666,78.0217723 190.077905,82.2178218 C189.266049,82.2178218 188.454681,82.2178218 187.642826,82.2178218 C188.245751,79.0721188 189.138451,75.9996733 190.321413,73 C190.936514,69.2798812 190.449498,65.7222871 188.860365,62.3267327 C185.657749,55.1300396 181.599446,48.4997574 176.684969,42.4356436 C173.033324,38.6380465 168.731026,35.8080297 163.779049,33.9455446 C159.148502,33.1478634 154.765359,33.7947119 150.62962,35.8861386 C142.870484,42.3202752 135.402583,49.1122574 128.226891,56.2623762 C125.629149,58.6483366 122.625722,60.3463564 119.217098,61.3564356 C118.383814,61.3860297 117.734621,61.0624356 117.269034,60.3861386 C116.045163,58.2718614 114.584116,56.3312673 112.885892,54.5643564 C107.218488,45.9273059 101.455142,37.3563812 95.5968287,28.8514851 C94.960786,29.5366119 94.5546148,30.3452089 94.3792891,31.2772277 C94.2171128,36.6138614 94.0544495,41.950495 93.8922732,47.2871287 C93.3112633,55.7985743 88.8467889,59.4371881 80.4993371,58.2029703 C70.6377531,55.2508416 60.7352597,52.5019901 50.7913699,49.9554455 C46.8573045,48.9657426 43.8540238,50.1786139 41.7815766,53.5940594 C39.8324904,58.1214653 38.3714428,62.8109109 37.3984338,67.6633663 C36.3335737,71.5159307 34.2231879,72.3246733 31.0672277,70.0891089 C29.8092658,68.3925446 28.672863,66.613505 27.6581167,64.7524752 C23.9803191,56.7780891 20.5712081,48.6925069 17.4307837,40.4950495 C15.7637772,36.6836257 13.7345282,33.1258861 11.3430855,29.8217822 C9.34062243,34.9604752 8.12308278,40.2971089 7.6904666,45.8316832 C7.36577313,51.4919109 7.36577313,57.1516535 7.6904666,62.8118812 C8.93703239,69.1309406 10.2357576,75.4378713 11.5865935,81.7326733 C12.540414,86.8257624 11.5663823,91.5152079 8.66449831,95.8019802 C6.54057346,98.3368812 4.99834035,101.166752 4.03784768,104.292079 C4.5556478,106.377733 5.28616672,108.399347 6.22941903,110.356436 C8.58331277,113.752475 10.9372552,117.148515 13.2911489,120.544554 C12.8787926,121.197079 12.3105912,121.682228 11.5865935,122 C9.03200048,118.689347 6.59692119,115.293307 4.2813556,111.811881 C2.17912731,108.462901 1.52977446,104.904822 2.33329218,101.138614 C4.98319415,97.3156436 7.25590235,93.2724158 9.15151417,89.009901 C9.47620764,86.422604 9.47620764,83.8348218 9.15151417,81.2475248 C4.2242676,64.8820099 3.73725175,48.3871545 7.6904666,31.7623762 C9.86596643,24.8568693 12.4634168,24.6951693 15.4827203,31.2772277 C20.1337704,41.1902673 24.5169131,51.2168317 28.6321484,61.3564356 C29.9800135,64.2110495 31.684569,66.7983465 33.7458149,69.1188119 C34.3783998,68.8325743 34.7842301,68.3474257 34.9633546,67.6633663 C35.8449507,61.6324851 37.7930141,55.9722574 40.8075448,50.6831683 C42.6972638,48.2217673 45.2135286,47.0897218 48.3562906,47.2871287 C50.7757854,47.7853277 53.2108647,48.189602 55.6615285,48.5 C64.1492408,51.3182277 72.7528629,53.7439703 81.4733689,55.7772277 C87.0321678,57.0313366 90.1977709,54.8481683 90.9701781,49.2277228 C91.3227775,40.753003 92.0533013,32.3437782 93.1617494,24 Z" id="Path" fill="#111111"></path>
            <path d="M172.70131,66 C173.87665,66.7113216 175.174098,67.0345175 176.593167,66.969103 C177.857047,75.0145963 178.911254,83.0906164 179.7553,91.1966786 C180.794426,103.627848 178.524014,115.41844 172.944551,126.568939 C168.3327,135.193471 163.143396,143.430847 157.377123,151.281066 C153.042081,159.435099 148.339745,167.349279 143.269142,175.02409 C135.990884,184.09974 126.504482,188.702979 114.809939,188.833808 C109.768525,189.163788 104.741705,189.002432 99.7289938,188.349257 C78.8156146,182.940208 59.6808139,173.895085 42.3241053,161.214372 C39.1802147,158.894824 36.9910452,155.906595 35.7565969,152.250169 C33.7235881,145.927741 31.6155152,139.628571 29.4323295,133.35266 C25.7649841,119.247366 21.9542239,105.195372 18,91.1966786 C18.6011459,90.781418 19.2497725,90.4587067 19.9459284,90.2275756 C23.6236358,101.534101 26.7857695,113.001497 29.4323295,124.630733 C32.5541825,135.135325 36.1217503,145.472747 40.1349358,155.64203 C45.6694968,160.832545 51.7506691,165.273945 58.3780148,168.967196 C67.6357693,174.143175 77.2034129,178.665495 87.0804591,182.534639 C99.49305,186.998812 112.141585,187.806559 125.026063,184.957396 C131.681139,182.534639 137.275683,178.577306 141.809696,173.085884 C146.738246,165.584542 151.27907,157.831718 155.431195,149.827412 C161.197467,141.977192 166.386772,133.739817 170.998622,125.115284 C176.140738,115.06181 178.248665,104.401676 177.32289,93.1348847 C176.430195,84.8941171 175.538473,76.6567414 174.647238,68.4227576 C167.25271,72.5438682 159.955479,76.9048318 152.755543,81.5056484 C152.326466,80.8951135 151.839984,80.3301264 151.296097,79.8097181 C158.516464,75.2728623 165.651211,70.6696229 172.70131,66 Z" id="Path" fill="#111111"></path>
            <path d="M126.993681,74.0415804 C132.046206,73.8949547 137.076823,74.1361154 142.086019,74.7650627 C148.499289,76.775861 151.014841,81.0366891 149.632188,87.5465823 C147.894135,95.527556 143.431671,101.395479 136.243824,105.151317 C133.848524,106.210495 131.414276,107.175138 128.94108,108.045246 C116.664193,111.179371 109.767482,106.597317 108.249972,94.2990832 C107.347352,88.4745688 108.889205,83.4101931 112.875043,79.1059561 C114.257209,78.1798988 115.717758,77.3758689 117.256689,76.6943486 C120.573109,75.836781 123.818935,74.9526857 126.993681,74.0415804 Z" id="Path" fill="#121212"></path>
            <path d="M127.355502,76.0301087 C131.210153,75.9497786 135.061434,76.0301087 138.909345,76.2720668 C146.300915,77.658971 148.628052,81.9334038 145.889791,89.0958492 C142.27729,98.5254425 135.457153,104.09048 125.429862,105.790962 C114.996261,107.080599 109.861059,102.403064 110.024739,91.7573889 C109.682456,84.5334862 112.892017,79.8554672 119.652941,77.7238158 C122.345467,77.4484674 124.912827,76.884221 127.355502,76.0301087 Z" id="Path" fill="#FAFAFA"></path>
            <path d="M137.09784,84 C138.106252,84.6255 138.269183,85.459 137.587123,86.5 C133.202658,87.8545 128.880332,89.3545 124.621123,91 C123.884752,90.101 123.803042,89.184 124.376481,88.25 C128.774157,87.131 133.014773,85.714 137.09784,84 Z" id="Path" fill="#111111"></path>
            <path d="M105,88 C105.5965,88.2088889 105.93,88.6533333 106,89.3333333 C105.8335,89.7777778 105.6665,90.2222222 105.5,90.6666667 C103.689,91.2035556 101.8555,91.648 100,92 C100,90.9631111 100,89.9257778 100,88.8888889 C101.7555,88.7115556 103.422,88.4151111 105,88 Z" id="Path" fill="#0F0F0F"></path>
            <path d="M131.470257,89.0299663 C132.547588,88.9492804 133.61395,89.0314513 134.669798,89.2774691 C135.354957,90.67685 134.973755,91.5841953 133.527105,92 C132.692939,91.7807125 131.855116,91.6153806 131.01318,91.5049944 C130.951931,90.6179443 131.104138,89.7932649 131.470257,89.0299663 Z" id="Path" fill="#0D0D0D"></path>
            <path d="M101.488592,98.0064478 C101.983196,97.9644689 102.396856,98.1275034 102.730068,98.494575 C105.650018,103.908882 108.298333,109.440827 110.67551,115.090899 C111.43728,117.697498 110.857759,119.89407 108.937445,121.680616 C105.843191,122.801356 102.697789,123.207965 99.5022315,122.900933 C99.1317752,122.297608 98.9664107,121.646447 99.0056413,120.948425 C101.897783,121.057277 104.711462,120.650667 107.447674,119.728107 C108.164751,119.178476 108.49548,118.446285 108.440855,117.531535 C106.564737,111.400169 103.998856,105.542643 100.743707,99.9589565 C100.503357,99.1325572 100.751652,98.4813955 101.488592,98.0064478 Z" id="Path" fill="#121212"></path>
        </g>
    </g>
</svg>
