<?xml version="1.0" encoding="UTF-8"?>
<!DOCTYPE svg PUBLIC "-//W3C//DTD SVG 1.1//EN" "http://www.w3.org/Graphics/SVG/1.1/DTD/svg11.dtd">
<svg xmlns="http://www.w3.org/2000/svg" version="1.1" width="400px" height="400px" style="shape-rendering:geometricPrecision; text-rendering:geometricPrecision; image-rendering:optimizeQuality; fill-rule:evenodd; clip-rule:evenodd" xmlns:xlink="http://www.w3.org/1999/xlink">
<g><path style="opacity:1" fill="#fdfdfd" d="M -0.5,-0.5 C 132.833,-0.5 266.167,-0.5 399.5,-0.5C 399.5,132.833 399.5,266.167 399.5,399.5C 266.167,399.5 132.833,399.5 -0.5,399.5C -0.5,266.167 -0.5,132.833 -0.5,-0.5 Z"/></g>
<g><path style="opacity:1" fill="#111111" d="M 191.5,48.5 C 194.959,49.436 197.793,51.436 200,54.5C 214.426,77.022 229.593,99.022 245.5,120.5C 250.901,117.926 255.901,114.759 260.5,111C 271.196,99.97 282.196,89.3033 293.5,79C 315.801,58.692 338.468,58.3586 361.5,78C 379.188,96.043 390.855,117.376 396.5,142C 395.214,151.018 393.214,159.851 390.5,168.5C 388.833,168.5 387.167,168.5 385.5,168.5C 386.738,162.016 388.571,155.683 391,149.5C 392.263,141.832 391.263,134.499 388,127.5C 381.424,112.666 373.091,98.9995 363,86.5C 355.502,78.6723 346.668,72.839 336.5,69C 326.992,67.3558 317.992,68.6891 309.5,73C 293.568,86.2622 278.234,100.262 263.5,115C 258.166,119.918 251.999,123.418 245,125.5C 243.289,125.561 241.956,124.894 241,123.5C 238.487,119.142 235.487,115.142 232,111.5C 220.363,93.6971 208.529,76.0305 196.5,58.5C 195.194,59.9122 194.36,61.5789 194,63.5C 193.667,74.5 193.333,85.5 193,96.5C 191.807,114.044 182.64,121.544 165.5,119C 145.251,112.915 124.918,107.249 104.5,102C 96.4221,99.96 90.2554,102.46 86,109.5C 81.9979,118.832 78.9979,128.498 77,138.5C 74.8135,146.441 70.4802,148.108 64,143.5C 61.417,140.003 59.0836,136.336 57,132.5C 49.4483,116.063 42.4483,99.3968 36,82.5C 32.5771,74.6438 28.4104,67.3105 23.5,60.5C 19.3883,71.092 16.8883,82.092 16,93.5C 15.3333,105.167 15.3333,116.833 16,128.5C 18.5596,141.525 21.2263,154.525 24,167.5C 25.9585,177.998 23.9585,187.664 18,196.5C 13.6389,201.725 10.4722,207.558 8.5,214C 9.56321,218.299 11.0632,222.466 13,226.5C 17.8333,233.5 22.6667,240.5 27.5,247.5C 26.6533,248.845 25.4866,249.845 24,250.5C 18.7546,243.676 13.7546,236.676 9,229.5C 4.68345,222.597 3.35012,215.263 5,207.5C 10.4411,199.62 15.1077,191.286 19,182.5C 19.6667,177.167 19.6667,171.833 19,166.5C 8.88278,132.767 7.88278,98.7674 16,64.5C 20.467,50.2662 25.8004,49.9329 32,63.5C 41.5501,83.933 50.5501,104.6 59,125.5C 61.7676,131.384 65.2676,136.717 69.5,141.5C 70.7989,140.91 71.6322,139.91 72,138.5C 73.8102,126.069 77.8102,114.402 84,103.5C 87.8802,98.4265 93.0469,96.0931 99.5,96.5C 104.468,97.5269 109.468,98.3602 114.5,99C 131.928,104.809 149.594,109.809 167.5,114C 178.914,116.585 185.414,112.085 187,100.5C 187.724,83.0317 189.224,65.6984 191.5,48.5 Z"/></g>
<g><path style="opacity:1" fill="#111111" d="M 353.5,134.5 C 355.916,135.968 358.583,136.635 361.5,136.5C 364.098,153.104 366.265,169.771 368,186.5C 370.136,212.155 365.469,236.488 354,259.5C 344.52,277.299 333.853,294.299 322,310.5C 313.089,327.328 303.423,343.661 293,359.5C 278.039,378.23 258.539,387.73 234.5,388C 224.137,388.681 213.804,388.348 203.5,387C 160.511,375.837 121.178,357.17 85.5,331C 79.0375,326.213 74.5375,320.046 72,312.5C 67.821,299.452 63.4877,286.452 59,273.5C 51.4615,244.39 43.6282,215.39 35.5,186.5C 36.7357,185.643 38.069,184.977 39.5,184.5C 47.0598,207.834 53.5598,231.5 59,255.5C 65.4172,277.179 72.7506,298.513 81,319.5C 92.3767,330.212 104.877,339.378 118.5,347C 137.53,357.682 157.197,367.015 177.5,375C 203.015,384.213 229.015,385.88 255.5,380C 269.18,375 280.68,366.833 290,355.5C 300.131,340.019 309.465,324.019 318,307.5C 329.853,291.299 340.52,274.299 350,256.5C 360.57,235.752 364.903,213.752 363,190.5C 361.165,173.493 359.332,156.493 357.5,139.5C 342.3,148.005 327.3,157.005 312.5,166.5C 311.618,165.24 310.618,164.074 309.5,163C 324.342,153.637 339.008,144.137 353.5,134.5 Z"/></g>
<g><path style="opacity:1" fill="#121212" d="M 260.5,150.5 C 270.878,150.196 281.211,150.696 291.5,152C 304.673,156.169 309.84,165.003 307,178.5C 303.43,195.047 294.264,207.213 279.5,215C 274.58,217.196 269.58,219.196 264.5,221C 239.283,227.498 225.117,217.998 222,192.5C 220.146,180.424 223.313,169.924 231.5,161C 234.339,159.08 237.339,157.413 240.5,156C 247.312,154.222 253.979,152.389 260.5,150.5 Z"/></g>
<g><path style="opacity:1" fill="#fafafa" d="M 262.5,155.5 C 270.507,155.334 278.507,155.5 286.5,156C 301.854,158.866 306.688,167.699 301,182.5C 293.496,201.986 279.329,213.486 258.5,217C 236.827,219.665 226.16,209.999 226.5,188C 225.789,173.072 232.456,163.405 246.5,159C 252.093,158.431 257.426,157.265 262.5,155.5 Z"/></g>
<g><path style="opacity:1" fill="#111111" d="M 155.5,171.5 C 164.532,170.12 171.698,173.12 177,180.5C 183.629,190.356 184.296,200.689 179,211.5C 175.108,220.286 170.441,228.62 165,236.5C 159.708,242.88 152.875,245.88 144.5,245.5C 127.7,244.85 113.2,238.85 101,227.5C 94.7197,219.375 92.3863,210.375 94,200.5C 102.413,193.036 111.913,187.203 122.5,183C 133.287,178.239 144.287,174.406 155.5,171.5 Z"/></g>
<g><path style="opacity:1" fill="#111111" d="M 279.5,171.5 C 281.561,172.751 281.894,174.418 280.5,176.5C 271.539,179.209 262.705,182.209 254,185.5C 252.495,183.702 252.328,181.868 253.5,180C 262.488,177.762 271.155,174.928 279.5,171.5 Z"/></g>
<g><path style="opacity:1" fill="#fbfbfb" d="M 154.5,176.5 C 166.073,175.221 173.573,180.221 177,191.5C 176.367,206.73 171.367,220.397 162,232.5C 155.546,240.155 147.38,242.655 137.5,240C 127.485,237.99 118.152,234.323 109.5,229C 101.489,221.83 97.8225,212.997 98.5,202.5C 104.176,197.673 110.509,193.84 117.5,191C 129.545,185.089 141.878,180.255 154.5,176.5 Z"/></g>
<g><path style="opacity:1" fill="#0f0f0f" d="M 214.5,180.5 C 215.693,180.97 216.36,181.97 216.5,183.5C 216.167,184.5 215.833,185.5 215.5,186.5C 211.878,187.708 208.211,188.708 204.5,189.5C 204.5,187.167 204.5,184.833 204.5,182.5C 208.011,182.101 211.344,181.434 214.5,180.5 Z"/></g>
<g><path style="opacity:1" fill="#0d0d0d" d="M 269.5,183.5 C 271.857,183.337 274.19,183.503 276.5,184C 277.999,186.827 277.165,188.66 274,189.5C 272.175,189.057 270.342,188.723 268.5,188.5C 268.366,186.708 268.699,185.042 269.5,183.5 Z"/></g>
<g><path style="opacity:1" fill="#151515" d="M 58.5,189.5 C 69.0733,192.143 79.7399,194.476 90.5,196.5C 91.0853,199.261 90.0853,200.927 87.5,201.5C 78.1032,199.317 68.7698,196.817 59.5,194C 58.6198,192.644 58.2865,191.144 58.5,189.5 Z"/></g>
<g><path style="opacity:1" fill="#161616" d="M 145.5,195.5 C 147.134,196.207 148.468,197.373 149.5,199C 145.012,202.743 140.346,206.243 135.5,209.5C 134.618,208.24 133.618,207.074 132.5,206C 136.903,202.481 141.237,198.981 145.5,195.5 Z"/></g>
<g><path style="opacity:1" fill="#121212" d="M 207.5,200.5 C 208.496,200.414 209.329,200.748 210,201.5C 215.88,212.592 221.213,223.925 226,235.5C 227.534,240.84 226.367,245.34 222.5,249C 216.269,251.296 209.935,252.129 203.5,251.5C 202.754,250.264 202.421,248.93 202.5,247.5C 208.324,247.723 213.99,246.89 219.5,245C 220.944,243.874 221.61,242.374 221.5,240.5C 217.722,227.939 212.555,215.939 206,204.5C 205.516,202.807 206.016,201.473 207.5,200.5 Z"/></g>
<g><path style="opacity:1" fill="#0e0e0e" d="M 143.5,206.5 C 150.957,207.755 151.291,210.089 144.5,213.5C 140.967,211.58 140.633,209.246 143.5,206.5 Z"/></g>
<g><path style="opacity:1" fill="#131313" d="M 239.5,303.5 C 242.553,304.056 243.886,305.889 243.5,309C 243.267,314.466 240.934,318.8 236.5,322C 219.393,326.694 202.06,327.694 184.5,325C 175.031,323.01 165.698,320.51 156.5,317.5C 157.246,316.264 157.579,314.93 157.5,313.5C 168.754,316.29 180.088,318.79 191.5,321C 206.104,322.409 220.437,321.076 234.5,317C 237.684,313.126 239.351,308.626 239.5,303.5 Z"/></g>
</svg>
